# xmcd
#
# Track frame offsets:
#	150
#	16036
#	36140
#	58502
#	77386
#	93762
#	110973
#	127877
#	144665
#	164905
#	186200
#
# Disc length: 2723 seconds
#
# Revision: 1
# Processed by: cddbd v1.4PL0 Copyright (c) Steve Scherf et al.
# Submitted via: EasyCDDAExtractor 5.0.6
#
DISCID=8b0aa10b
DTITLE=Axel - mi forma de amar
DYEAR=2001
DGENRE=ballad
TTITLE0=agua salada
TTITLE1=ultimamente
TTITLE2=aunque dobles mi edad
TTITLE3=amor diferente
TTITLE4=destino e ilusion
TTITLE5=pienso en ti
TTITLE6=se fue
TTITLE7=mi fuerza eres tu
TTITLE8=de donde sales tu
TTITLE9=solo ellos
TTITLE10=agua salada (remix)
EXTD=
EXTT0=
EXTT1=
EXTT2=
EXTT3=
EXTT4=
EXTT5=
EXTT6=
EXTT7=
EXTT8=
EXTT9=
EXTT10=
PLAYORDER=
